<mxfile host="app.diagrams.net" agent="Mozilla/5.0 (Windows NT 10.0; Win64; x64) AppleWebKit/537.36 (KHTML, like Gecko) Chrome/135.0.0.0 Safari/537.36 Edg/135.0.0.0" version="26.2.8">
  <diagram id="C5RBs43oDa-KdzZeNtuy" name="Page-1">
    <mxGraphModel dx="1619" dy="445" grid="0" gridSize="10" guides="1" tooltips="1" connect="1" arrows="1" fold="1" page="0" pageScale="1" pageWidth="827" pageHeight="1169" background="none" math="0" shadow="0">
      <root>
        <mxCell id="WIyWlLk6GJQsqaUBKTNV-0" />
        <mxCell id="WIyWlLk6GJQsqaUBKTNV-1" parent="WIyWlLk6GJQsqaUBKTNV-0" />
        <mxCell id="eP2JIxnxrdYGhj9Yvx8S-0" value="输入待检测&lt;div&gt;的文本&lt;/div&gt;" style="shape=parallelogram;perimeter=parallelogramPerimeter;whiteSpace=wrap;html=1;fixedSize=1;fillColor=#ffe6cc;strokeColor=#d79b00;" vertex="1" parent="WIyWlLk6GJQsqaUBKTNV-1">
          <mxGeometry x="30" y="530" width="120" height="60" as="geometry" />
        </mxCell>
        <mxCell id="eP2JIxnxrdYGhj9Yvx8S-1" value="&amp;nbsp; &amp;nbsp;文本语言：&lt;div&gt;&lt;span style=&quot;background-color: transparent; color: light-dark(rgb(0, 0, 0), rgb(255, 255, 255));&quot;&gt;中文/英文&lt;/span&gt;&lt;/div&gt;" style="shape=parallelogram;perimeter=parallelogramPerimeter;whiteSpace=wrap;html=1;fixedSize=1;fillColor=#ffe6cc;strokeColor=#d79b00;" vertex="1" parent="WIyWlLk6GJQsqaUBKTNV-1">
          <mxGeometry x="30" y="630" width="120" height="60" as="geometry" />
        </mxCell>
        <mxCell id="eP2JIxnxrdYGhj9Yvx8S-4" value="" style="edgeStyle=elbowEdgeStyle;elbow=horizontal;endArrow=classic;html=1;curved=0;rounded=0;endSize=8;startSize=8;fontSize=12;exitX=1;exitY=0.5;exitDx=0;exitDy=0;entryX=0;entryY=0.5;entryDx=0;entryDy=0;" edge="1" parent="WIyWlLk6GJQsqaUBKTNV-1" source="eP2JIxnxrdYGhj9Yvx8S-0" target="eP2JIxnxrdYGhj9Yvx8S-6">
          <mxGeometry width="50" height="50" relative="1" as="geometry">
            <mxPoint x="130" y="590" as="sourcePoint" />
            <mxPoint x="325" y="610" as="targetPoint" />
            <Array as="points">
              <mxPoint x="235" y="590" />
            </Array>
          </mxGeometry>
        </mxCell>
        <mxCell id="eP2JIxnxrdYGhj9Yvx8S-5" value="" style="edgeStyle=elbowEdgeStyle;elbow=horizontal;endArrow=classic;html=1;curved=0;rounded=0;endSize=8;startSize=8;fontSize=12;exitX=1;exitY=0.5;exitDx=0;exitDy=0;entryX=0;entryY=0.5;entryDx=0;entryDy=0;" edge="1" parent="WIyWlLk6GJQsqaUBKTNV-1" source="eP2JIxnxrdYGhj9Yvx8S-1" target="eP2JIxnxrdYGhj9Yvx8S-6">
          <mxGeometry width="50" height="50" relative="1" as="geometry">
            <mxPoint x="130" y="590" as="sourcePoint" />
            <mxPoint x="325" y="610" as="targetPoint" />
            <Array as="points">
              <mxPoint x="235" y="630" />
            </Array>
          </mxGeometry>
        </mxCell>
        <mxCell id="eP2JIxnxrdYGhj9Yvx8S-58" value="" style="edgeStyle=none;curved=1;rounded=0;orthogonalLoop=1;jettySize=auto;html=1;fontSize=12;startSize=8;endSize=8;" edge="1" parent="WIyWlLk6GJQsqaUBKTNV-1" source="eP2JIxnxrdYGhj9Yvx8S-6" target="eP2JIxnxrdYGhj9Yvx8S-57">
          <mxGeometry relative="1" as="geometry" />
        </mxCell>
        <mxCell id="eP2JIxnxrdYGhj9Yvx8S-6" value="AI生成率检测" style="rounded=0;whiteSpace=wrap;html=1;fillColor=#ffe6cc;strokeColor=#d79b00;" vertex="1" parent="WIyWlLk6GJQsqaUBKTNV-1">
          <mxGeometry x="390" y="580" width="120" height="60" as="geometry" />
        </mxCell>
        <mxCell id="eP2JIxnxrdYGhj9Yvx8S-31" value="" style="edgeStyle=none;curved=1;rounded=0;orthogonalLoop=1;jettySize=auto;html=1;fontSize=12;startSize=8;endSize=8;" edge="1" parent="WIyWlLk6GJQsqaUBKTNV-1" source="eP2JIxnxrdYGhj9Yvx8S-7" target="eP2JIxnxrdYGhj9Yvx8S-30">
          <mxGeometry relative="1" as="geometry" />
        </mxCell>
        <mxCell id="eP2JIxnxrdYGhj9Yvx8S-7" value="AIGC模型" style="rounded=0;whiteSpace=wrap;html=1;fillColor=#fff2cc;strokeColor=#d6b656;" vertex="1" parent="WIyWlLk6GJQsqaUBKTNV-1">
          <mxGeometry x="250" y="710" width="120" height="60" as="geometry" />
        </mxCell>
        <mxCell id="eP2JIxnxrdYGhj9Yvx8S-33" value="" style="edgeStyle=none;curved=1;rounded=0;orthogonalLoop=1;jettySize=auto;html=1;fontSize=12;startSize=8;endSize=8;" edge="1" parent="WIyWlLk6GJQsqaUBKTNV-1" source="eP2JIxnxrdYGhj9Yvx8S-9" target="eP2JIxnxrdYGhj9Yvx8S-32">
          <mxGeometry relative="1" as="geometry" />
        </mxCell>
        <mxCell id="eP2JIxnxrdYGhj9Yvx8S-9" value="Desklib模型" style="rounded=0;whiteSpace=wrap;html=1;fillColor=#fff2cc;strokeColor=#d6b656;" vertex="1" parent="WIyWlLk6GJQsqaUBKTNV-1">
          <mxGeometry x="390" y="710" width="120" height="60" as="geometry" />
        </mxCell>
        <mxCell id="eP2JIxnxrdYGhj9Yvx8S-35" value="" style="edgeStyle=none;curved=1;rounded=0;orthogonalLoop=1;jettySize=auto;html=1;fontSize=12;startSize=8;endSize=8;" edge="1" parent="WIyWlLk6GJQsqaUBKTNV-1" source="eP2JIxnxrdYGhj9Yvx8S-10" target="eP2JIxnxrdYGhj9Yvx8S-34">
          <mxGeometry relative="1" as="geometry" />
        </mxCell>
        <mxCell id="eP2JIxnxrdYGhj9Yvx8S-10" value="TextRecog模型" style="rounded=0;whiteSpace=wrap;html=1;fillColor=#fff2cc;strokeColor=#d6b656;" vertex="1" parent="WIyWlLk6GJQsqaUBKTNV-1">
          <mxGeometry x="530" y="710" width="120" height="60" as="geometry" />
        </mxCell>
        <mxCell id="eP2JIxnxrdYGhj9Yvx8S-16" value="" style="endArrow=none;html=1;rounded=0;fontSize=12;startSize=8;endSize=8;curved=1;entryX=0.5;entryY=1;entryDx=0;entryDy=0;exitX=0.5;exitY=0;exitDx=0;exitDy=0;" edge="1" parent="WIyWlLk6GJQsqaUBKTNV-1" source="eP2JIxnxrdYGhj9Yvx8S-9" target="eP2JIxnxrdYGhj9Yvx8S-6">
          <mxGeometry width="50" height="50" relative="1" as="geometry">
            <mxPoint x="450" y="690" as="sourcePoint" />
            <mxPoint x="500" y="640" as="targetPoint" />
          </mxGeometry>
        </mxCell>
        <mxCell id="eP2JIxnxrdYGhj9Yvx8S-22" value="" style="shape=partialRectangle;whiteSpace=wrap;html=1;bottom=1;right=1;left=1;top=0;fillColor=none;routingCenterX=-0.5;rotation=-180;" vertex="1" parent="WIyWlLk6GJQsqaUBKTNV-1">
          <mxGeometry x="310" y="670" width="280" height="40" as="geometry" />
        </mxCell>
        <mxCell id="eP2JIxnxrdYGhj9Yvx8S-30" value="aigc_score" style="whiteSpace=wrap;html=1;rounded=0;fillColor=#fff2cc;strokeColor=#d6b656;" vertex="1" parent="WIyWlLk6GJQsqaUBKTNV-1">
          <mxGeometry x="250" y="840" width="120" height="60" as="geometry" />
        </mxCell>
        <mxCell id="eP2JIxnxrdYGhj9Yvx8S-39" value="" style="edgeStyle=none;curved=1;rounded=0;orthogonalLoop=1;jettySize=auto;html=1;fontSize=12;startSize=8;endSize=8;" edge="1" parent="WIyWlLk6GJQsqaUBKTNV-1" source="eP2JIxnxrdYGhj9Yvx8S-32" target="eP2JIxnxrdYGhj9Yvx8S-38">
          <mxGeometry relative="1" as="geometry" />
        </mxCell>
        <mxCell id="eP2JIxnxrdYGhj9Yvx8S-32" value="desklib_score" style="whiteSpace=wrap;html=1;rounded=0;fillColor=#fff2cc;strokeColor=#d6b656;" vertex="1" parent="WIyWlLk6GJQsqaUBKTNV-1">
          <mxGeometry x="390" y="840" width="120" height="60" as="geometry" />
        </mxCell>
        <mxCell id="eP2JIxnxrdYGhj9Yvx8S-34" value="textrecogn_score" style="whiteSpace=wrap;html=1;rounded=0;fillColor=#fff2cc;strokeColor=#d6b656;" vertex="1" parent="WIyWlLk6GJQsqaUBKTNV-1">
          <mxGeometry x="530" y="840" width="120" height="60" as="geometry" />
        </mxCell>
        <mxCell id="eP2JIxnxrdYGhj9Yvx8S-44" value="" style="edgeStyle=none;curved=1;rounded=0;orthogonalLoop=1;jettySize=auto;html=1;fontSize=12;startSize=8;endSize=8;" edge="1" parent="WIyWlLk6GJQsqaUBKTNV-1" source="eP2JIxnxrdYGhj9Yvx8S-38" target="eP2JIxnxrdYGhj9Yvx8S-43">
          <mxGeometry relative="1" as="geometry" />
        </mxCell>
        <mxCell id="eP2JIxnxrdYGhj9Yvx8S-38" value="得到三维的检测向量" style="whiteSpace=wrap;html=1;rounded=0;fillColor=#fff2cc;strokeColor=#d6b656;" vertex="1" parent="WIyWlLk6GJQsqaUBKTNV-1">
          <mxGeometry x="270" y="1000" width="360" height="60" as="geometry" />
        </mxCell>
        <mxCell id="eP2JIxnxrdYGhj9Yvx8S-41" value="" style="edgeStyle=elbowEdgeStyle;elbow=vertical;endArrow=classic;html=1;curved=0;rounded=0;endSize=8;startSize=8;fontSize=12;exitX=0.5;exitY=1;exitDx=0;exitDy=0;entryX=0.5;entryY=0;entryDx=0;entryDy=0;" edge="1" parent="WIyWlLk6GJQsqaUBKTNV-1" source="eP2JIxnxrdYGhj9Yvx8S-30" target="eP2JIxnxrdYGhj9Yvx8S-38">
          <mxGeometry width="50" height="50" relative="1" as="geometry">
            <mxPoint x="530" y="1000" as="sourcePoint" />
            <mxPoint x="580" y="950" as="targetPoint" />
          </mxGeometry>
        </mxCell>
        <mxCell id="eP2JIxnxrdYGhj9Yvx8S-42" value="" style="edgeStyle=elbowEdgeStyle;elbow=vertical;endArrow=classic;html=1;curved=0;rounded=0;endSize=8;startSize=8;fontSize=12;exitX=0.5;exitY=1;exitDx=0;exitDy=0;entryX=0.5;entryY=0;entryDx=0;entryDy=0;" edge="1" parent="WIyWlLk6GJQsqaUBKTNV-1" source="eP2JIxnxrdYGhj9Yvx8S-34" target="eP2JIxnxrdYGhj9Yvx8S-38">
          <mxGeometry width="50" height="50" relative="1" as="geometry">
            <mxPoint x="530" y="1000" as="sourcePoint" />
            <mxPoint x="450" y="1020" as="targetPoint" />
          </mxGeometry>
        </mxCell>
        <mxCell id="eP2JIxnxrdYGhj9Yvx8S-46" value="" style="edgeStyle=none;curved=1;rounded=0;orthogonalLoop=1;jettySize=auto;html=1;fontSize=12;startSize=8;endSize=8;" edge="1" parent="WIyWlLk6GJQsqaUBKTNV-1" source="eP2JIxnxrdYGhj9Yvx8S-43" target="eP2JIxnxrdYGhj9Yvx8S-45">
          <mxGeometry relative="1" as="geometry" />
        </mxCell>
        <mxCell id="eP2JIxnxrdYGhj9Yvx8S-43" value="是否存在&lt;div&gt;超过阈值的维度&lt;/div&gt;" style="rhombus;whiteSpace=wrap;html=1;rounded=0;fillColor=#fff2cc;strokeColor=#d6b656;gradientColor=#ffd966;" vertex="1" parent="WIyWlLk6GJQsqaUBKTNV-1">
          <mxGeometry x="380" y="1130" width="140" height="80" as="geometry" />
        </mxCell>
        <mxCell id="eP2JIxnxrdYGhj9Yvx8S-45" value="AI生成，分别计算概率并加权平均" style="whiteSpace=wrap;html=1;rounded=0;fillColor=#fff2cc;strokeColor=#d6b656;" vertex="1" parent="WIyWlLk6GJQsqaUBKTNV-1">
          <mxGeometry x="390" y="1290" width="120" height="60" as="geometry" />
        </mxCell>
        <mxCell id="eP2JIxnxrdYGhj9Yvx8S-47" value="是" style="text;html=1;align=center;verticalAlign=middle;whiteSpace=wrap;rounded=0;" vertex="1" parent="WIyWlLk6GJQsqaUBKTNV-1">
          <mxGeometry x="400" y="1230" width="60" height="30" as="geometry" />
        </mxCell>
        <mxCell id="eP2JIxnxrdYGhj9Yvx8S-49" value="" style="edgeStyle=none;curved=1;rounded=0;orthogonalLoop=1;jettySize=auto;html=1;fontSize=12;startSize=8;endSize=8;" edge="1" parent="WIyWlLk6GJQsqaUBKTNV-1" source="eP2JIxnxrdYGhj9Yvx8S-48" target="eP2JIxnxrdYGhj9Yvx8S-43">
          <mxGeometry relative="1" as="geometry" />
        </mxCell>
        <mxCell id="eP2JIxnxrdYGhj9Yvx8S-48" value="训练得到&lt;div&gt;的阈值向量&lt;/div&gt;" style="shape=parallelogram;perimeter=parallelogramPerimeter;whiteSpace=wrap;html=1;fixedSize=1;fillColor=#f8cecc;strokeColor=#b85450;" vertex="1" parent="WIyWlLk6GJQsqaUBKTNV-1">
          <mxGeometry x="180" y="1140" width="120" height="60" as="geometry" />
        </mxCell>
        <mxCell id="eP2JIxnxrdYGhj9Yvx8S-52" value="否" style="text;html=1;align=center;verticalAlign=middle;whiteSpace=wrap;rounded=0;" vertex="1" parent="WIyWlLk6GJQsqaUBKTNV-1">
          <mxGeometry x="540" y="1139" width="60" height="30" as="geometry" />
        </mxCell>
        <mxCell id="eP2JIxnxrdYGhj9Yvx8S-53" value="" style="edgeStyle=segmentEdgeStyle;endArrow=classic;html=1;curved=0;rounded=0;endSize=8;startSize=8;fontSize=12;exitX=1;exitY=0.5;exitDx=0;exitDy=0;" edge="1" parent="WIyWlLk6GJQsqaUBKTNV-1" source="eP2JIxnxrdYGhj9Yvx8S-43">
          <mxGeometry width="50" height="50" relative="1" as="geometry">
            <mxPoint x="400" y="1180" as="sourcePoint" />
            <mxPoint x="630" y="1290" as="targetPoint" />
          </mxGeometry>
        </mxCell>
        <mxCell id="eP2JIxnxrdYGhj9Yvx8S-54" value="Human生成，计算概率并加权平均" style="rounded=0;whiteSpace=wrap;html=1;fillColor=#fff2cc;strokeColor=#d6b656;" vertex="1" parent="WIyWlLk6GJQsqaUBKTNV-1">
          <mxGeometry x="570" y="1290" width="120" height="60" as="geometry" />
        </mxCell>
        <mxCell id="eP2JIxnxrdYGhj9Yvx8S-57" value="输出&lt;div&gt;label: AI/Human&lt;div&gt;和AI生成概率值&lt;/div&gt;&lt;/div&gt;" style="shape=parallelogram;perimeter=parallelogramPerimeter;whiteSpace=wrap;html=1;fixedSize=1;rounded=0;fillColor=#ffe6cc;strokeColor=#d79b00;" vertex="1" parent="WIyWlLk6GJQsqaUBKTNV-1">
          <mxGeometry x="700" y="580" width="160" height="60" as="geometry" />
        </mxCell>
        <mxCell id="eP2JIxnxrdYGhj9Yvx8S-60" value="" style="edgeStyle=none;curved=1;rounded=0;orthogonalLoop=1;jettySize=auto;html=1;fontSize=12;startSize=8;endSize=8;" edge="1" parent="WIyWlLk6GJQsqaUBKTNV-1" source="eP2JIxnxrdYGhj9Yvx8S-59" target="eP2JIxnxrdYGhj9Yvx8S-48">
          <mxGeometry relative="1" as="geometry" />
        </mxCell>
        <mxCell id="eP2JIxnxrdYGhj9Yvx8S-59" value="数据集构建" style="rounded=0;whiteSpace=wrap;html=1;fillColor=#f8cecc;strokeColor=#b85450;" vertex="1" parent="WIyWlLk6GJQsqaUBKTNV-1">
          <mxGeometry x="-10" y="1140" width="120" height="60" as="geometry" />
        </mxCell>
      </root>
    </mxGraphModel>
  </diagram>
</mxfile>
